<?xml version="1.0" encoding="UTF-8" standalone="no"?>
<!-- Generator: Adobe Illustrator 19.0.0, SVG Export Plug-In . SVG Version: 6.00 Build 0)  -->

<svg
   xmlns:dc="http://purl.org/dc/elements/1.1/"
   xmlns:cc="http://creativecommons.org/ns#"
   xmlns:rdf="http://www.w3.org/1999/02/22-rdf-syntax-ns#"
   xmlns:svg="http://www.w3.org/2000/svg"
   xmlns="http://www.w3.org/2000/svg"
   xmlns:sodipodi="http://sodipodi.sourceforge.net/DTD/sodipodi-0.dtd"
   xmlns:inkscape="http://www.inkscape.org/namespaces/inkscape"
   version="1.1"
   id="Layer_1"
   x="0px"
   y="0px"
   viewBox="0 0 512.015 512.015"
   style="enable-background:new 0 0 512.015 512.015;"
   xml:space="preserve"
   sodipodi:docname="github.svg"
   inkscape:version="0.92.4 (5da689c313, 2019-01-14)"><metadata
   id="metadata55"><rdf:RDF><cc:Work
       rdf:about=""><dc:format>image/svg+xml</dc:format><dc:type
         rdf:resource="http://purl.org/dc/dcmitype/StillImage" /><dc:title></dc:title></cc:Work></rdf:RDF></metadata><defs
   id="defs53" /><sodipodi:namedview
   pagecolor="#ffffff"
   bordercolor="#666666"
   borderopacity="1"
   objecttolerance="10"
   gridtolerance="10"
   guidetolerance="10"
   inkscape:pageopacity="0"
   inkscape:pageshadow="2"
   inkscape:window-width="1920"
   inkscape:window-height="1001"
   id="namedview51"
   showgrid="false"
   inkscape:pagecheckerboard="true"
   inkscape:zoom="0.46092398"
   inkscape:cx="256.00751"
   inkscape:cy="256.00751"
   inkscape:window-x="-9"
   inkscape:window-y="-9"
   inkscape:window-maximized="1"
   inkscape:current-layer="Layer_1" />
<g
   id="g18">
	<g
   id="g16">
		<g
   id="g14">
			<path
   d="M341.333,273.074c75.281,0,136.533-61.252,136.533-136.533S416.614,0.008,341.333,0.008     C266.052,0.008,204.8,61.26,204.8,136.541S266.052,273.074,341.333,273.074z M341.333,17.074     c65.877,0,119.467,53.589,119.467,119.467s-53.589,119.467-119.467,119.467s-119.467-53.589-119.467-119.467     S275.456,17.074,341.333,17.074z"
   id="path2" />
			<path
   d="M507.426,358.408c-9.412-16.316-30.362-21.888-46.089-12.774l-98.219,47.804c-15.266,7.637-30.677,7.637-64.452,7.637     c-33.015,0-83.422-8.337-83.925-8.414c-4.693-0.759-9.054,2.372-9.822,7.006c-0.777,4.651,2.364,9.054,7.006,9.822     c2.125,0.358,52.301,8.653,86.741,8.653c35.43,0,53.214,0,72.004-9.395l98.662-48.051c3.942-2.278,8.542-2.884,12.954-1.707     c4.395,1.186,8.081,4.011,10.351,7.953c2.287,3.951,2.893,8.55,1.715,12.954s-4.002,8.081-8.192,10.505l-115.379,71.808     c-0.239,0.162-24.858,15.667-80.648,15.667c-48.367,0-123.11-41.182-124.186-41.771c-0.768-0.375-19.277-9.429-55.014-9.429     c-4.71,0-8.533,3.823-8.533,8.533s3.823,8.533,8.533,8.533c31.036,0,47.027,7.467,47.061,7.467v-0.009     c3.217,1.792,79.334,43.742,132.139,43.742c61.611,0,88.934-17.749,89.839-18.355l114.961-71.552     c7.893-4.557,13.542-11.921,15.898-20.719C513.203,375.5,511.983,366.301,507.426,358.408z"
   id="path4" />
			<path
   d="M341.333,179.208c-9.412,0-17.067-7.654-17.067-17.067c0-4.71-3.814-8.533-8.533-8.533s-8.533,3.823-8.533,8.533     c0,15.855,10.914,29.107,25.6,32.922v1.212c0,4.71,3.814,8.533,8.533,8.533c4.719,0,8.533-3.823,8.533-8.533v-1.212     c14.686-3.814,25.6-17.067,25.6-32.922c0-18.825-15.309-34.133-34.133-34.133c-9.412,0-17.067-7.654-17.067-17.067     c0-9.412,7.654-17.067,17.067-17.067c9.412,0,17.067,7.654,17.067,17.067c0,4.71,3.814,8.533,8.533,8.533     s8.533-3.823,8.533-8.533c0-15.855-10.914-29.107-25.6-32.922v-1.212c0-4.71-3.814-8.533-8.533-8.533     c-4.719,0-8.533,3.823-8.533,8.533v1.212c-14.686,3.814-25.6,17.067-25.6,32.922c0,18.825,15.309,34.133,34.133,34.133     c9.412,0,17.067,7.654,17.067,17.067C358.4,171.553,350.746,179.208,341.333,179.208z"
   id="path6" />
			<path
   d="M59.733,273.074h-51.2c-4.71,0-8.533,3.823-8.533,8.533s3.823,8.533,8.533,8.533h51.2c4.702,0,8.533,3.831,8.533,8.533     v187.733c0,4.702-3.831,8.533-8.533,8.533h-51.2c-4.71,0-8.533,3.823-8.533,8.533s3.823,8.533,8.533,8.533h51.2     c14.114,0,25.6-11.486,25.6-25.6V298.674C85.333,284.56,73.847,273.074,59.733,273.074z"
   id="path8" />
			<path
   d="M110.933,324.274H179.2c9.958,0,26.88,12.698,41.813,23.893c18.722,14.046,36.412,27.307,52.053,27.307h51.2     c12.962,0,19.396,5.879,19.567,6.033c1.664,1.664,3.849,2.5,6.033,2.5c2.185,0,4.369-0.836,6.033-2.5     c3.336-3.337,3.336-8.73,0-12.066c-1.126-1.126-11.605-11.034-31.633-11.034h-51.2c-9.958,0-26.88-12.698-41.813-23.893     c-18.722-14.046-36.412-27.307-52.053-27.307h-68.267c-4.71,0-8.533,3.823-8.533,8.533S106.223,324.274,110.933,324.274z"
   id="path10" />
			<path
   d="M42.667,456.541c0-7.057-5.743-12.8-12.8-12.8c-7.057,0-12.8,5.743-12.8,12.8c0,7.057,5.743,12.8,12.8,12.8     C36.924,469.341,42.667,463.598,42.667,456.541z"
   id="path12" />
		</g>
	</g>
</g>
<g
   id="g20">
</g>
<g
   id="g22">
</g>
<g
   id="g24">
</g>
<g
   id="g26">
</g>
<g
   id="g28">
</g>
<g
   id="g30">
</g>
<g
   id="g32">
</g>
<g
   id="g34">
</g>
<g
   id="g36">
</g>
<g
   id="g38">
</g>
<g
   id="g40">
</g>
<g
   id="g42">
</g>
<g
   id="g44">
</g>
<g
   id="g46">
</g>
<g
   id="g48">
</g>
<path
   style="stroke-width:2.16955519"
   d="M 313.69313,269.07307 C 250.87509,254.99754 206.01617,199.49865 206.13981,136.00949 206.28318,62.389741 267.19575,1.4771709 340.8155,1.3338015 405.80519,1.2072384 461.01856,47.003273 474.17845,111.95002 c 6.51084,32.13225 -1.07597,70.57769 -19.36521,98.13161 -9.95804,15.00241 -31.84618,35.79826 -46.09908,43.79854 -28.07946,15.76126 -65.66461,21.77075 -95.02103,15.1929 z m 51.87691,-15.02771 c 47.09908,-9.88857 83.39276,-46.18225 93.28133,-93.28132 3.98593,-18.98486 4.02112,-30.78498 0.14644,-49.0651 C 445.38526,47.479311 380.87262,5.50562 316.31945,18.868567 c -42.7388,8.847222 -81.71744,46.660596 -91.68418,88.943283 -9.71034,41.19496 1.84291,82.75506 31.37224,112.85421 29.20522,29.76879 69.00556,41.89435 109.56253,33.3793 z"
   id="path57"
   inkscape:connector-curvature="0" /><path
   style="stroke-width:2.16955519"
   d="M 313.69313,269.07302 C 253.66605,255.62306 210.54568,205.67159 206.74056,145.17708 203.17012,88.413729 232.2406,39.324723 284.38454,14.065853 c 65.5076,-31.732322 146.48263,-2.629794 178.78366,64.255088 9.82865,20.351944 15.09836,47.107539 13.35055,67.784059 -1.52335,18.02138 -9.5867,44.08207 -18.17196,58.7317 -8.12813,13.86958 -29.02585,35.59026 -43.45915,45.17053 -27.8488,18.48498 -69.10006,26.25702 -101.19451,19.06579 z m 63.96596,-18.1368 c 35.73733,-11.05486 67.1195,-42.71721 78.53318,-79.23432 6.16939,-19.73849 6.47137,-50.88221 0.66352,-68.43108 C 436.57683,41.996491 377.11267,6.2839551 316.31945,18.868567 c -43.72811,9.052017 -83.59286,48.916762 -92.64488,92.644873 -13.64212,65.90181 30.5844,131.15163 97.41959,143.72847 14.35574,2.70143 40.29601,0.72687 56.56493,-4.30569 z"
   id="path59"
   inkscape:connector-curvature="0" /><path
   style="stroke-width:2.16955519"
   d="m 317.06226,270.20056 c -27.82846,-4.96841 -61.61367,-24.91222 -79.59451,-46.9856 -19.53529,-23.98162 -29.03573,-48.69822 -30.67595,-79.80736 -2.16256,-41.01623 10.07967,-72.734502 39.38349,-102.038321 42.10711,-42.10711596 99.85296,-51.934098 154.10763,-26.225488 38.66864,18.323155 64.995,52.880287 73.94862,97.068189 9.00945,44.46348 -6.35142,90.28752 -41.19029,122.87759 -16.61014,15.53796 -31.85153,24.52469 -52.28432,30.82823 -17.43525,5.3788 -46.57968,7.33843 -63.69467,4.28276 z m 61.52511,-19.76974 c 26.40104,-8.82439 52.57533,-30.09859 66.71408,-54.22455 15.81717,-26.98995 20.13528,-65.71765 10.6216,-95.26149 C 446.6486,72.143835 423.60039,44.70425 396.89631,30.67165 343.2582,2.4856218 279.29395,18.004913 243.73844,67.831495 193.93912,137.61897 232.32731,234.95499 317.20768,254.11806 c 17.12891,3.86713 43.52186,2.28162 61.37969,-3.68724 z"
   id="path61"
   inkscape:connector-curvature="0" /><path
   style="fill:#ffffff;stroke-width:2.16955519"
   d="m 334.53261,198.72186 c -0.88474,-2.39168 -5.00255,-6.13513 -9.1507,-8.31878 -15.5854,-8.20442 -23.07106,-35.06293 -9.77228,-35.06293 4.22209,0 5.71505,1.57353 7.44808,7.85005 3.0373,11.00021 8.24674,16.01506 16.63648,16.01506 10.08618,0 13.66243,-1.84189 17.32391,-8.92241 6.36661,-12.31168 -2.02332,-24.37991 -18.37967,-26.43764 -17.93004,-2.2557 -29.47682,-15.17513 -29.47682,-32.98094 0,-13.618916 4.77107,-21.541927 16.98397,-28.204219 4.3748,-2.386511 7.95683,-5.439942 7.96005,-6.785404 0.0178,-7.437926 11.68808,-8.395811 14.01089,-1.150002 0.63408,1.977963 4.77758,5.548895 9.20779,7.935406 12.36969,6.663435 20.75429,24.704879 15.08477,32.458419 -4.3428,5.93913 -11.51943,2.55877 -13.16256,-6.19987 -1.63724,-8.72726 -6.82804,-13.810453 -15.96986,-15.638817 -5.68776,-1.137552 -7.91818,-0.267947 -13.41736,5.231233 -12.97366,12.973664 -4.50108,30.776084 14.65966,30.802584 7.25793,0.01 18.58763,6.71866 23.17786,13.72422 9.84635,15.02743 8.02738,31.24468 -4.72405,42.11795 -4.53778,3.8694 -10.72802,9.48313 -13.75609,12.47494 -6.63842,6.55893 -12.50027,6.99452 -14.68407,1.09115 z"
   id="path71"
   inkscape:connector-curvature="0" /><path
   style="fill:#ffffff;stroke-width:2.16955519"
   d="m 312.86857,269.33281 c -38.06094,-8.67057 -74.14595,-36.18022 -90.94581,-69.33315 -10.15244,-20.03488 -13.94777,-34.18462 -15.18623,-56.61735 -2.25691,-40.88018 10.53071,-73.514715 40.38645,-103.067899 26.36825,-26.101033 57.48163,-38.9122427 94.66852,-38.9806095 21.82267,-0.04012 38.31718,4.0783354 61.2041,15.2818295 30.86492,15.108856 54.65559,42.828316 67.23294,78.335809 4.69359,13.25063 5.66605,19.90543 5.81271,39.77793 0.28337,38.40079 -10.36433,65.94554 -36.14568,93.50588 -16.80134,17.96066 -35.3709,29.98488 -56.96909,36.88875 -21.66459,6.92509 -50.52376,8.65885 -70.05791,4.20881 z m 62.46447,-18.61748 C 426.45125,235.80025 460.6298,189.26213 460.43527,134.83857 460.32202,103.151 450.32352,78.700383 427.80143,55.034945 380.37919,5.2052646 305.56694,4.0526865 257.21282,52.406811 210.78101,98.838615 209.73678,169.98688 254.7817,218.04973 c 32.14438,34.29798 75.0816,45.93261 120.55134,32.6656 z"
   id="path73"
   inkscape:connector-curvature="0" /><path
   style="fill:#ffffff;stroke-width:2.16955519"
   d="m 259.63289,490.4124 c -21.13204,-4.75289 -52.05233,-16.32979 -83.8605,-31.39831 -24.85916,-11.77656 -29.42328,-13.20461 -47.54781,-14.87704 -21.0039,-1.93812 -24.99197,-3.67297 -23.72592,-10.321 0.62685,-3.29158 3.14081,-4.15356 13.76318,-4.7191 19.57854,-1.04236 35.92668,3.06434 62.60889,15.72755 49.96896,23.71495 83.62275,33.7385 113.36219,33.76417 19.37327,0.0167 48.79918,-4.47507 63.65627,-9.71696 10.03035,-3.53892 130.23399,-77.21342 134.6407,-82.52319 1.40501,-1.69293 2.65578,-6.64867 2.77946,-11.01277 0.17378,-6.13365 -1.13307,-9.10283 -5.7578,-13.08085 -3.2905,-2.83037 -8.08131,-5.14612 -10.64625,-5.14612 -2.56495,0 -29.60282,12.11262 -60.08418,26.91693 -30.48134,14.80432 -59.81398,28.17026 -65.18363,29.70209 -22.07338,6.29701 -135.26702,0.67987 -144.81781,-7.18647 -3.68908,-3.03844 -3.42753,-10.24215 0.42556,-11.72071 1.72562,-0.66219 16.12604,0.53651 32.00094,2.66377 36.4402,4.88305 98.69089,5.47195 111.25119,1.05246 4.74258,-1.66873 33.52197,-15.08976 63.95421,-29.82451 30.43224,-14.73475 57.83075,-26.79045 60.88557,-26.79045 8.82167,0 24.42179,9.07667 28.84276,16.78167 5.22095,9.09928 5.21225,24.64504 -0.0195,33.60189 -2.9832,5.10797 -19.4148,16.53389 -62.5555,43.49874 -69.21866,43.26475 -74.51081,46.1133 -96.14238,51.74945 -22.77521,5.93412 -67.66104,7.3951 -87.83028,2.85876 z"
   id="path75"
   inkscape:connector-curvature="0" /><path
   style="fill:#ffffff;stroke-width:2.16955519"
   d="m 340.654,378.70751 c -6.60701,-3.70773 -11.84186,-4.24229 -41.54362,-4.24229 -33.07441,0 -34.2948,-0.16357 -45.59451,-6.11111 -6.38576,-3.3611 -19.80347,-12.18783 -29.81714,-19.61494 -34.9763,-25.94184 -32.48472,-25.10398 -78.33854,-26.34328 -39.21592,-1.05989 -40.15223,-1.1934 -40.81081,-5.81948 -1.21257,-8.51742 5.64852,-9.85638 45.94212,-8.96573 43.2247,0.95543 44.02026,1.22854 79.48135,27.28479 32.75672,24.06913 33.64959,24.38082 69.88172,24.39496 33.98373,0.0132 44.22449,1.8831 53.23695,9.72043 4.91005,4.26982 5.54341,5.8888 3.56777,9.11962 -3.30467,5.40417 -7.15606,5.54302 -16.00529,0.57703 z"
   id="path77"
   inkscape:connector-curvature="0" /><path
   style="fill:#ffffff;stroke-width:2.16955519"
   d="m 2.4298495,507.29445 c -1.3080324,-2.44409 -1.2965253,-5.22045 0.031471,-7.59344 1.8234747,-3.25837 5.939981,-3.7407 31.9254565,-3.7407 20.309969,0 30.663056,-0.83101 32.435522,-2.60347 3.747034,-3.74704 3.747034,-197.15377 0,-200.90081 -1.762511,-1.76251 -11.874011,-2.60346 -31.303582,-2.60346 -23.182892,0 -29.3546824,-0.65457 -32.1051151,-3.405 -2.57023361,-2.57024 -2.85545462,-4.43184 -1.1634127,-7.59345 2.0510089,-3.83234 4.8266096,-4.18844 32.6467668,-4.18844 33.823112,0 40.725169,1.92476 46.424638,12.94632 5.028187,9.72344 4.909978,198.85703 -0.130924,209.47995 -5.546064,11.68746 -13.509599,14.05524 -47.271726,14.05524 -25.9684448,0 -29.6695167,-0.45283 -31.4890945,-3.85274 z"
   id="path79"
   inkscape:connector-curvature="0" /><path
   style="fill:#ffffff;stroke-width:2.16955519"
   d="m 20.506594,462.47769 c -3.985553,-6.08273 -1.756015,-12.51883 5.723276,-16.52162 6.060834,-3.24366 14.991678,2.57206 14.991678,9.76251 0,11.66568 -14.417639,16.37002 -20.714954,6.75911 z"
   id="path81"
   inkscape:connector-curvature="0" /></svg>